<svg width="18" height="18" viewBox="0 0 18 18" fill="none" xmlns="http://www.w3.org/2000/svg">
<path d="M16.875 11.2756C17.6836 11.6272 18.1406 12.5061 17.8945 13.385L17.1562 16.5842C17.0156 17.428 16.2773 17.9905 15.3984 17.9905C6.89062 17.9905 0 11.0999 0 2.59205C0 1.71315 0.5625 0.974864 1.40625 0.799083L4.60547 0.0608015C5.48438 -0.150136 6.36328 0.306895 6.71484 1.11549L8.22656 4.63111C8.54297 5.3694 8.29688 6.2483 7.69922 6.77565L6.50391 7.72486C7.41797 9.27174 8.71875 10.5725 10.3008 11.4866L11.25 10.3264C11.7773 9.69361 12.6562 9.44752 13.4297 9.79908L16.875 11.2756ZM16.2773 12.9983C16.3125 12.928 16.2773 12.8577 16.207 12.7874L12.7617 11.3108C12.6914 11.2756 12.6211 11.3108 12.5859 11.346L11.1797 13.0686C10.9336 13.385 10.4766 13.4553 10.125 13.2796C7.76953 12.1194 5.83594 10.1858 4.67578 7.83033C4.5 7.47877 4.60547 7.0569 4.88672 6.8108L6.60938 5.40455C6.67969 5.3694 6.67969 5.29908 6.64453 5.22877L5.16797 1.78346C5.13281 1.7483 5.09766 1.67799 5.02734 1.67799L4.99219 1.71315L1.79297 2.45143C1.72266 2.45143 1.65234 2.52174 1.65234 2.59205C1.65234 10.1506 7.83984 16.303 15.3984 16.303C15.4688 16.303 15.5391 16.2327 15.5391 16.1975L16.2773 12.9983Z" fill="#414651"/>
</svg>
