<svg width="16" height="16" viewBox="0 0 16 16" fill="none" xmlns="http://www.w3.org/2000/svg">
<path d="M15.1875 8.25C15.1875 8.74219 14.8008 9.09375 14.3438 9.09375H8.71875V14.7188C8.71875 15.2109 8.33203 15.5977 7.875 15.5977C7.38281 15.5977 7.03125 15.2109 7.03125 14.7188V9.09375H1.40625C0.914062 9.09375 0.5625 8.74219 0.5625 8.28516C0.5625 7.79297 0.914062 7.40625 1.40625 7.40625H7.03125V1.78125C7.03125 1.32422 7.38281 0.972656 7.875 0.972656C8.33203 0.972656 8.71875 1.32422 8.71875 1.78125V7.40625H14.3438C14.8008 7.40625 15.1875 7.79297 15.1875 8.25Z" fill="white"/>
</svg>
