<svg width="18" height="18" viewBox="0 0 18 18" fill="none" xmlns="http://www.w3.org/2000/svg">
<path d="M15.9609 10.4102C16.418 10.5508 16.6641 11.0078 16.5234 11.4648C15.5391 14.8047 12.4453 17.125 8.96484 17.125C6.1875 17.125 3.62109 15.6133 2.21484 13.2578V16.8438C2.21484 17.3359 1.86328 17.6875 1.37109 17.6875C0.914062 17.6875 0.527344 17.3359 0.527344 16.8438V11.2188C0.527344 10.7617 0.914062 10.375 1.37109 10.375H6.99609C7.48828 10.375 7.83984 10.7617 7.83984 11.2188C7.83984 11.7109 7.45312 12.0625 6.99609 12.0625H3.44531C4.5 14.1016 6.60938 15.4375 8.96484 15.4375C11.707 15.4375 14.168 13.6094 14.9062 10.9727C15.0469 10.5156 15.5039 10.2695 15.9609 10.4102ZM16.5938 0.8125C17.0508 0.8125 17.4375 1.19922 17.4375 1.65625V7.28125C17.4375 7.77344 17.0508 8.125 16.5938 8.125H10.9688C10.4766 8.125 10.125 7.77344 10.125 7.28125C10.125 6.82422 10.4766 6.4375 10.9688 6.4375H14.4844C13.4297 4.43359 11.3203 3.0625 9 3.0625C6.25781 3.0625 3.79688 4.92578 3.02344 7.52734C2.91797 7.98438 2.46094 8.23047 2.00391 8.08984C1.54688 7.98438 1.30078 7.49219 1.40625 7.07031C2.39062 3.73047 5.51953 1.375 9 1.375C11.7773 1.375 14.3438 2.92188 15.75 5.27734V1.65625C15.75 1.19922 16.1016 0.8125 16.5938 0.8125Z" fill="#414651"/>
</svg>
