<svg width="18" height="16" viewBox="0 0 18 16" fill="none" xmlns="http://www.w3.org/2000/svg">
<path d="M6.75 15.0312C6.75 15.5234 6.36328 15.875 5.90625 15.875H3.375C1.47656 15.875 0 14.3984 0 12.5V3.5C0 1.63672 1.47656 0.125 3.375 0.125H5.90625C6.36328 0.125 6.75 0.511719 6.75 0.96875C6.75 1.46094 6.36328 1.8125 5.90625 1.8125H3.375C2.42578 1.8125 1.6875 2.58594 1.6875 3.5V12.5C1.6875 13.4492 2.42578 14.1875 3.375 14.1875H5.90625C6.36328 14.1875 6.75 14.5742 6.75 15.0312ZM17.7539 7.4375L13.2891 2.65625C12.9727 2.30469 12.4453 2.30469 12.0938 2.62109C11.7422 2.9375 11.7422 3.46484 12.0586 3.81641L15.1875 7.15625H6.43359C5.97656 7.15625 5.625 7.54297 5.625 8C5.625 8.49219 5.97656 8.84375 6.43359 8.84375H15.1523L11.9883 12.2188C11.6719 12.5703 11.6719 13.0977 12.0234 13.4141C12.2344 13.5547 12.4453 13.625 12.6211 13.625C12.832 13.625 13.043 13.5547 13.2188 13.3789L17.6836 8.59766C18.0703 8.28125 18.0703 7.75391 17.7539 7.4375Z" fill="#414651"/>
</svg>
