<svg width="15" height="16" viewBox="0 0 15 16" fill="none" xmlns="http://www.w3.org/2000/svg">
<path d="M14.6484 13.1016C15.0703 13.5703 15.0703 14.2734 14.6484 14.6953C14.1797 15.1641 13.4766 15.1641 13.0547 14.6953L7.52344 9.11719L1.94531 14.6953C1.47656 15.1641 0.773438 15.1641 0.351562 14.6953C-0.117188 14.2734 -0.117188 13.5703 0.351562 13.1016L5.92969 7.52344L0.351562 1.94531C-0.117188 1.47656 -0.117188 0.773438 0.351562 0.351562C0.773438 -0.117188 1.47656 -0.117188 1.89844 0.351562L7.52344 5.97656L13.1016 0.398438C13.5234 -0.0703125 14.2266 -0.0703125 14.6484 0.398438C15.1172 0.820312 15.1172 1.52344 14.6484 1.99219L9.07031 7.52344L14.6484 13.1016Z" fill="#181D27"/>
</svg>
