<svg width="23" height="16" viewBox="0 0 23 16" fill="none" xmlns="http://www.w3.org/2000/svg">
<path d="M18 15.875H5.0625C2.25 15.875 0 13.625 0 10.8125C0 8.63281 1.40625 6.73438 3.375 6.06641V6.03125C3.375 2.79688 6.01172 0.125 9.28125 0.125C11.0391 0.125 12.6562 0.933594 13.7461 2.19922C14.2734 1.95312 14.8359 1.8125 15.4688 1.8125C17.7891 1.8125 19.6875 3.71094 19.6875 6.03125C19.6875 6.27734 19.6523 6.48828 19.6172 6.73438C21.3047 7.47266 22.5 9.16016 22.5 11.0938C22.5 13.6602 20.4961 15.7344 18 15.875ZM13.2891 4.23828L12.4453 3.28906C11.6719 2.41016 10.5469 1.8125 9.28125 1.8125C6.92578 1.8125 5.0625 3.71094 5.0625 6.03125V7.26172L3.90234 7.64844C2.60156 8.10547 1.6875 9.37109 1.6875 10.8125C1.6875 12.6758 3.16406 14.1875 5.0625 14.1875H17.8945C19.5117 14.1172 20.8125 12.7461 20.8125 11.0938C20.8125 9.82812 20.0391 8.73828 18.9492 8.28125L17.7539 7.75391L17.9648 6.45312C17.9648 6.3125 18 6.17188 18 6.03125C18 4.66016 16.8398 3.5 15.4688 3.5C15.082 3.5 14.7305 3.60547 14.4141 3.74609L13.2891 4.23828Z" fill="#414651"/>
</svg>
