<svg width="18" height="19" viewBox="0 0 18 19" fill="none" xmlns="http://www.w3.org/2000/svg">
<path d="M17.7188 16.8086C18.0703 17.1602 18.0703 17.6875 17.7188 18.0039C17.5781 18.1797 17.3672 18.25 17.1562 18.25C16.9102 18.25 16.6992 18.1797 16.5234 18.0039L11.8125 13.293C10.5469 14.3125 8.96484 14.875 7.27734 14.875C3.26953 14.875 0 11.6055 0 7.5625C0 3.55469 3.23438 0.25 7.27734 0.25C11.2852 0.25 14.5898 3.55469 14.5898 7.5625C14.5898 9.28516 14.0273 10.8672 13.0078 12.0977L17.7188 16.8086ZM1.6875 7.5625C1.6875 10.6914 4.18359 13.1875 7.3125 13.1875C10.4062 13.1875 12.9375 10.6914 12.9375 7.5625C12.9375 4.46875 10.4062 1.9375 7.3125 1.9375C4.18359 1.9375 1.6875 4.46875 1.6875 7.5625Z" fill="#414651"/>
</svg>
