<svg width="18" height="18" viewBox="0 0 18 18" fill="none" xmlns="http://www.w3.org/2000/svg">
<path d="M5.31586 9C5.31586 7.13672 6.79242 5.625 8.69086 5.625C10.5541 5.625 12.0659 7.13672 12.0659 9C12.0659 10.8633 10.5541 12.375 8.69086 12.375C6.79242 12.375 5.31586 10.8633 5.31586 9ZM8.69086 7.3125C7.74164 7.3125 7.00336 8.08594 7.00336 9C7.00336 9.94922 7.74164 10.6875 8.69086 10.6875C9.60492 10.6875 10.3784 9.94922 10.3784 9C10.3784 8.08594 9.60492 7.3125 8.69086 7.3125ZM9.99164 0C10.7651 0 11.433 0.5625 11.6088 1.30078L11.8901 2.46094C12.2065 2.60156 12.4877 2.77734 12.7338 2.95312L13.894 2.60156C14.6323 2.39062 15.4409 2.70703 15.8276 3.375L17.1284 5.66016C17.5151 6.32812 17.3745 7.17188 16.812 7.69922L15.9682 8.50781C15.9682 8.68359 16.0034 8.85938 16.0034 9C16.0034 9.17578 15.9682 9.35156 15.9682 9.49219L16.812 10.3359C17.3745 10.8633 17.5151 11.707 17.1284 12.375L15.8276 14.6602C15.4409 15.3281 14.6323 15.6445 13.894 15.4336L12.7338 15.082C12.4877 15.2578 12.2065 15.4336 11.8901 15.5742L11.6088 16.7344C11.433 17.4727 10.7651 18 9.99164 18H7.35492C6.58148 18 5.91352 17.4727 5.73773 16.7344L5.45648 15.5742C5.14008 15.4336 4.85883 15.2578 4.61273 15.082L3.45258 15.4336C2.7143 15.6445 1.9057 15.3281 1.51898 14.6602L0.218203 12.375C-0.168515 11.707 -0.0278903 10.8633 0.53461 10.3359L1.37836 9.49219C1.37836 9.35156 1.37836 9.17578 1.37836 9C1.37836 8.85938 1.37836 8.68359 1.37836 8.50781L0.53461 7.69922C-0.0278903 7.17188 -0.168515 6.32812 0.218203 5.66016L1.51898 3.375C1.9057 2.70703 2.7143 2.39062 3.45258 2.60156L4.61273 2.95312C4.85883 2.77734 5.14008 2.60156 5.45648 2.46094L5.73773 1.30078C5.91352 0.5625 6.58148 0 7.35492 0H9.99164ZM6.89789 3.65625L6.51117 3.83203C6.05414 4.00781 5.63227 4.25391 5.2807 4.53516L4.92914 4.81641L2.99555 4.21875L1.69477 6.50391L3.13617 7.875L3.10102 8.29688C3.06586 8.54297 3.06586 8.78906 3.06586 9C3.06586 9.24609 3.06586 9.49219 3.10102 9.73828L3.13617 10.1602L1.69477 11.5312L2.99555 13.8164L4.92914 13.2188L5.2807 13.5C5.63227 13.7812 6.05414 14.0273 6.51117 14.2031L6.89789 14.3789L7.35492 16.3125H9.99164L10.4487 14.3789L10.8354 14.2031C11.2924 14.0273 11.7143 13.7812 12.0659 13.5L12.4174 13.2188L14.351 13.8164L15.6518 11.5312L14.2104 10.1602L14.2455 9.73828C14.2807 9.49219 14.3159 9.24609 14.3159 9C14.3159 8.78906 14.2807 8.54297 14.2455 8.29688L14.2104 7.875L15.6518 6.50391L14.351 4.21875L12.4174 4.81641L12.0659 4.53516C11.7143 4.25391 11.2924 4.00781 10.8354 3.83203L10.4487 3.65625L9.99164 1.6875H7.35492L6.89789 3.65625Z" fill="#414651"/>
</svg>
